<svg width="580" height="580" viewBox="0 0 580 580" fill="none" xmlns="http://www.w3.org/2000/svg">
<path d="M580 134L580 204L378 204L378 134L580 134Z" fill="#FF4500"/>
<path d="M448 204L378 204L378 -3.08047e-06L448 0L448 204Z" fill="#FF4500"/>
<path d="M-1.90735e-06 446L-4.94661e-06 376L202 376L202 446L-1.90735e-06 446Z" fill="#36454F"/>
<path d="M132 376L202 376L202 580L132 580L132 376Z" fill="#36454F"/>
<path d="M327 0V70H0V0H327Z" fill="#36454F"/>
<path d="M580 580V510H253V580H580Z" fill="#36454F"/>
<path d="M0 2.86102e-06H70L70 321H0L0 2.86102e-06Z" fill="#36454F"/>
<path d="M510 580H580L580 251H510L510 580Z" fill="#36454F"/>
<path d="M576 251V321H0V251H576Z" fill="#36454F"/>
<path d="M257 2.86102e-06H327V204H257V2.86102e-06Z" fill="#36454F"/>
<path d="M253 580H323V376H253V580Z" fill="#36454F"/>
<path d="M327 134V204H125V134H327Z" fill="#36454F"/>
<path d="M455 446V376H253V446H455Z" fill="#36454F"/>
</svg>
